<?xml version="1.0" encoding="UTF-8"?>
<svg width="800px" height="600px" viewBox="0 0 800 600" version="1.1" xmlns="http://www.w3.org/2000/svg">
    <path fill="#FFFFFF" d="M400,100 C350,100 310,120 280,150 C250,180 230,220 220,270 L180,270 C160,270 140,290 140,310 L140,350 C140,370 160,390 180,390 L220,390 C230,440 250,480 280,510 C310,540 350,560 400,560 C450,560 490,540 520,510 C550,480 570,440 580,390 L620,390 C640,390 660,370 660,350 L660,310 C660,290 640,270 620,270 L580,270 C570,220 550,180 520,150 C490,120 450,100 400,100 Z"/>
</svg> 