<?xml version="1.0" encoding="UTF-8"?>
<svg width="800px" height="600px" viewBox="0 0 800 600" version="1.1" xmlns="http://www.w3.org/2000/svg">
    <path fill="#FFFFFF" d="M450,50 C440,50 430,60 430,70 L430,150 L400,180 L370,150 L370,70 C370,60 360,50 350,50 C340,50 330,60 330,70 L330,200 L300,230 L300,500 C300,540 330,570 370,570 C410,570 440,540 440,500 L440,350 L460,330 L460,500 C460,540 490,570 530,570 C570,570 600,540 600,500 L600,230 L570,200 L570,70 C570,60 560,50 550,50 C540,50 530,60 530,70 L530,150 L500,180 L470,150 L470,70 C470,60 460,50 450,50 Z"/>
</svg> 