<?xml version="1.0" encoding="UTF-8"?>
<svg width="800px" height="600px" viewBox="0 0 800 600" version="1.1" xmlns="http://www.w3.org/2000/svg">
    <path fill="#FFFFFF" d="M400,100 C320,100 260,160 260,240 C260,280 280,320 310,340 L310,380 C310,420 340,450 380,450 L420,450 C460,450 490,420 490,380 L490,340 C520,320 540,280 540,240 C540,160 480,100 400,100 Z M350,260 C330,260 320,250 320,230 C320,210 330,200 350,200 C370,200 380,210 380,230 C380,250 370,260 350,260 Z M450,260 C430,260 420,250 420,230 C420,210 430,200 450,200 C470,200 480,210 480,230 C480,250 470,260 450,260 Z"/>
</svg> 